<svg width="1347" height="2548" viewBox="0 0 1347 2548" fill="none" xmlns="http://www.w3.org/2000/svg">
<path d="M1108 1150.5C1938.5 547.499 211.544 900.074 94.9983 246.003" stroke="white" stroke-opacity="0.5" stroke-width="10" stroke-dasharray="20 20"/>
<path d="M102.846 2176.62C-269 1992.5 966.389 1453.01 1102 1139" stroke="white" stroke-opacity="0.5" stroke-width="10" stroke-dasharray="20 20"/>
<path d="M663.499 2547L634.727 2490.87L690.361 2501.2L663.499 2547ZM115.696 2177C118.764 2178.73 121.814 2180.43 124.847 2182.1L121.844 2191.13C118.78 2189.44 115.699 2187.72 112.6 2185.97L115.696 2177ZM142.834 2191.81C148.76 2194.94 154.617 2197.96 160.405 2200.87L157.79 2210.11C151.936 2207.16 146.014 2204.11 140.023 2200.95L142.834 2191.81ZM178.826 2209.91C184.906 2212.81 190.908 2215.6 196.832 2218.27L194.655 2227.71C188.656 2225.01 182.581 2222.19 176.427 2219.25L178.826 2209.91ZM215.168 2226.28C221.374 2228.9 227.49 2231.4 233.52 2233.78L231.831 2243.43C225.717 2241.02 219.517 2238.49 213.23 2235.83L215.168 2226.28ZM251.889 2240.74C258.181 2243.03 264.374 2245.19 270.469 2247.22L269.32 2257.07C263.132 2255.01 256.846 2252.82 250.462 2250.49L251.889 2240.74ZM288.949 2253.08C295.281 2254.98 301.502 2256.75 307.615 2258.38L307.062 2268.4C300.847 2266.74 294.524 2264.95 288.09 2263.02L288.949 2253.08ZM326.237 2263.03C332.553 2264.5 338.747 2265.82 344.822 2267.01L344.916 2277.19C338.732 2275.97 332.428 2274.63 326.001 2273.13L326.237 2263.03ZM363.563 2270.34C369.825 2271.33 375.951 2272.19 381.946 2272.91L382.729 2283.19C376.62 2282.46 370.378 2281.59 364 2280.58L363.563 2270.34ZM400.668 2274.8C406.976 2275.3 413.128 2275.67 419.127 2275.91L420.629 2286.26C414.512 2286.01 408.241 2285.63 401.81 2285.12L400.668 2274.8ZM437.315 2276.28C443.6 2276.28 449.705 2276.14 455.635 2275.9L457.843 2286.24C451.8 2286.49 445.578 2286.63 439.17 2286.63L437.315 2276.28ZM473.763 2274.78C479.933 2274.27 485.897 2273.66 491.662 2272.97L494.515 2283.26C488.655 2283.96 482.588 2284.59 476.306 2285.1L473.763 2274.78ZM509.377 2270.53C515.484 2269.58 521.343 2268.57 526.968 2267.55L530.307 2277.76C524.627 2278.8 518.695 2279.82 512.502 2280.78L509.377 2270.53ZM544.52 2264.18C550.703 2262.95 556.597 2261.76 562.16 2260.69L565.571 2270.89C560.039 2271.95 554.202 2273.13 547.979 2274.37L544.52 2264.18ZM580.066 2257.6C586.713 2256.66 592.934 2256.08 598.729 2256.11L600.54 2266.46C595.313 2266.44 589.529 2266.96 583.093 2267.87L580.066 2257.6ZM619.197 2259.73C626.359 2262.68 632.562 2267.58 637.799 2274.84L630.608 2280.12C626.769 2274.79 622.444 2271.42 617.361 2269.33L619.197 2259.73ZM648.107 2295.65C650.212 2301.71 652.069 2308.58 653.722 2316.33L644.34 2316.72C642.765 2309.33 641.034 2302.98 639.14 2297.52L648.107 2295.65ZM657.35 2336.9C658.284 2343.29 659.139 2350.17 659.923 2357.56L650.348 2356.73C649.576 2349.47 648.74 2342.75 647.831 2336.52L657.35 2336.9ZM661.766 2377.37C662.283 2383.72 662.764 2390.4 663.212 2397.42L653.596 2396.12C653.152 2389.16 652.675 2382.55 652.164 2376.27L661.766 2377.37ZM664.391 2418.07C664.708 2424.31 665.007 2430.77 665.289 2437.48L655.66 2435.95C655.38 2429.27 655.083 2422.83 654.767 2416.63L664.391 2418.07ZM666.073 2458.03C666.291 2464.3 666.497 2470.77 666.694 2477.43L657.06 2475.76C656.865 2469.12 656.659 2462.67 656.442 2456.41L666.073 2458.03ZM667.254 2498.01C667.411 2504.29 667.562 2510.73 667.707 2517.33L658.072 2515.57C657.927 2508.98 657.777 2502.56 657.619 2496.29L667.254 2498.01Z" fill="white" fill-opacity="0.5"/>
</svg>
